<svg width="115" height="30" viewBox="0 0 115 30" fill="none" xmlns="http://www.w3.org/2000/svg">
<g clip-path="url(#clip0_102_63)">
<path d="M86.3726 18.6189C86.3726 19.3636 86.3832 19.6573 86.4045 19.2692C86.4258 18.8811 86.4258 18.2622 86.4045 17.9056C86.3832 17.549 86.3726 17.8636 86.3726 18.6189Z" fill="#F97753" fill-opacity="0.17"/>
<path d="M94.0357 25.9825C94.1956 26.0035 94.43 26.0035 94.5686 25.9825C94.6965 25.9615 94.5686 25.9406 94.2702 25.9406C93.9824 25.9406 93.8652 25.9615 94.0357 25.9825Z" fill="#FC7953" fill-opacity="0.31"/>
<path d="M61.2303 7.81468C61.2303 11.1608 61.2409 12.5454 61.2516 10.8881C61.2729 9.23076 61.2729 6.493 61.2516 4.80419C61.2409 3.11538 61.2303 4.46852 61.2303 7.81468Z" fill="#FC7852" fill-opacity="0.34"/>
<path d="M97.4676 7.81468C97.4676 11.1608 97.4782 12.5454 97.4889 10.8881C97.5102 9.23076 97.5102 6.493 97.4889 4.80419C97.4782 3.11538 97.4676 4.46852 97.4676 7.81468Z" fill="#FB774F" fill-opacity="0.23"/>
<path d="M91.3818 26.1189C91.3818 27.8182 91.4032 28.521 91.4138 27.6608C91.4351 26.8112 91.4351 25.4266 91.4138 24.5664C91.4032 23.7168 91.3818 24.4196 91.3818 26.1189Z" fill="#FA7650" fill-opacity="0.21"/>
<path d="M59.7382 9.65034C59.7382 12.042 59.7488 13.028 59.7595 11.8322C59.7808 10.6259 59.7808 8.67482 59.7595 7.47901C59.7488 6.27272 59.7382 7.25873 59.7382 9.65034Z" fill="#FC7951" fill-opacity="0.32"/>
<path d="M13.4185 0.146855C13.3971 0.167834 13.184 0.209792 12.9495 0.241261C11.873 0.398604 11.6173 0.451051 10.722 0.69231C9.80539 0.944058 9.5496 1.04895 8.31327 1.61539C6.04311 2.65385 3.98612 4.45804 2.51531 6.69231C1.32161 8.50699 0.373049 11.0035 0.138573 12.965C-0.0106394 14.1818 0.0533087 16.7413 0.255811 17.7692C0.991214 21.5455 3.15479 24.8811 6.28825 27.1049C7.33274 27.8392 8.69696 28.5734 8.91012 28.4895C8.99539 28.458 9.04868 28.4685 9.0167 28.521C8.94209 28.6259 10.1358 29.0664 11.1376 29.3077C12.2141 29.5699 13.7275 29.7797 15.3476 29.8846C16.829 29.9895 21.753 29.958 22.659 29.8427C22.8934 29.8217 23.7887 29.7797 24.6414 29.7692L26.2081 29.7378L26.2507 29.4755C26.3786 28.8147 26.304 27.2622 26.0695 25.9091C25.7391 23.9895 25.0144 22.6154 23.6502 21.2832C21.9129 19.5734 19.5042 18.493 17.2021 18.3881C16.4667 18.3462 15.987 18.3671 15.9551 18.4301C15.9124 18.493 16.4027 18.7343 17.0848 18.986C17.735 19.2378 18.5023 19.542 18.7688 19.6783C19.0459 19.8147 19.291 19.8881 19.3337 19.8566C19.3656 19.8147 19.3976 19.8357 19.3976 19.8986C19.3976 19.951 19.6001 20.1503 19.8559 20.3287C20.3995 20.7168 21.0922 21.3566 21.7957 22.1119L22.3179 22.6678L21.9982 22.9301C20.8364 23.9056 18.6196 25.0385 17.5325 25.2273C17.3619 25.2482 17.0955 25.3007 16.9463 25.3322C16.0723 25.5315 14.2391 25.4371 12.7896 25.1434C11.6386 24.9021 9.73079 23.9685 8.73959 23.1713C6.71457 21.535 5.42495 19.5105 4.91336 17.2028C4.7002 16.2378 4.68955 16.0804 4.68955 14.9476C4.7002 13.6259 4.71086 13.5734 4.956 12.3776C5.0306 11.9895 5.43561 10.993 5.78732 10.2902C7.69511 6.54546 12.2567 4.16434 16.4667 4.70979C19.2591 5.07692 22.0941 6.67133 23.6502 8.75874C24.1617 9.45105 24.3429 9.84965 24.1617 9.91259C23.874 10.007 23.0533 10.2063 22.7549 10.2483C21.5079 10.4371 18.3851 11.7692 16.8823 12.7448C16.1043 13.2587 14.8147 14.3706 14.8147 14.528C14.8147 14.6329 15.5607 14.4545 16.2428 14.1923C16.893 13.9406 19.0459 13.2378 19.4509 13.1538C20.7725 12.8706 23.3091 12.7552 24.3003 12.9336C24.62 12.986 25.8777 13.2483 26.4319 13.3741C27.0501 13.5105 29.235 14.3601 30.1942 14.8217C31.5904 15.5245 31.5691 15.6294 30.7697 12.8182C30.1835 10.7727 28.9259 8.15035 27.7642 6.55594C26.2081 4.41609 24.3323 2.81119 22.0621 1.67832C21.2095 1.25874 19.3337 0.576925 18.7475 0.48252C18.545 0.451051 18.1933 0.367135 17.9588 0.304198C17.5538 0.199303 13.5144 0.0524498 13.4185 0.146855ZM53.386 1.4056C53.3647 1.42658 53.0983 1.46853 52.7998 1.51049C51.8193 1.62588 50.8068 2.06644 50.2099 2.64336C49.1015 3.71329 49.0269 4.15385 49.0269 9.63986C49.0269 12.8182 49.0589 13.9406 49.1548 14.035C49.336 14.2133 52.5547 14.2133 52.7359 14.035C52.8212 13.951 52.8638 13.4685 52.8638 12.5664V11.2238H55.9546V12.5559C55.9546 13.3007 55.9972 13.9615 56.0399 14.035C56.1145 14.1294 56.5515 14.1608 57.8837 14.1399L59.6316 14.1084L59.6636 9.44056C59.6956 4.00699 59.6849 3.87063 58.7363 2.82168C58.2461 2.26574 57.1376 1.68881 56.2211 1.52098C55.8374 1.44755 53.45 1.35315 53.386 1.4056ZM55.2725 4.88811C55.848 5.16084 55.9546 5.47553 55.9546 6.87063V8.07692H52.8744L52.8425 6.89161C52.8105 5.52797 52.9171 5.19231 53.5033 4.90909C53.9722 4.67832 54.7929 4.66783 55.2725 4.88811ZM78.3258 1.4056C78.3045 1.42658 78.038 1.46853 77.7396 1.51049C76.6951 1.62588 75.7252 2.07692 75.0538 2.73776C74.4889 3.3042 74.2225 3.84965 74.0839 4.72028C73.9134 5.72727 73.924 13.8671 74.0946 14.035C74.2757 14.2133 77.4945 14.2133 77.6756 14.035C77.7609 13.951 77.8035 13.4685 77.8035 12.5664V11.2238H80.8944V12.5559C80.8944 13.3007 80.937 13.9615 80.9796 14.035C81.0542 14.1294 81.4912 14.1608 82.8235 14.1399L84.5714 14.1084L84.6034 9.44056C84.6247 6.05245 84.5927 4.64685 84.5074 4.3007C84.3476 3.71329 83.804 2.86364 83.367 2.49651C82.9087 2.11888 81.8536 1.64686 81.1608 1.52098C80.7771 1.44755 78.3897 1.35315 78.3258 1.4056ZM80.3934 4.97203C80.7984 5.24476 80.8944 5.59091 80.8944 6.87063V8.07692H77.8035V6.73427C77.8035 5.46504 77.8142 5.37063 78.0487 5.16084C78.6029 4.64685 79.7433 4.55245 80.3934 4.97203ZM108.115 1.46853C106.495 1.70979 105.312 2.46504 104.704 3.65035L104.395 4.24825V14.1084H108.019L108.051 12.6608L108.083 11.2238H111.163V12.5664C111.163 13.4685 111.206 13.951 111.291 14.035C111.494 14.2343 114.723 14.2133 114.883 14.014C115.021 13.8462 115 4.91958 114.851 4.35315C114.52 3.04196 113.401 2.02448 111.813 1.6049C111.142 1.42658 108.936 1.34266 108.115 1.46853ZM110.843 5.08741L111.163 5.39161V8.07692H108.072V6.87063C108.072 5.48602 108.179 5.17133 108.733 4.88811C108.989 4.76224 109.287 4.72028 109.799 4.74126C110.417 4.77273 110.556 4.81469 110.843 5.08741ZM36.6743 1.61539C36.589 1.70979 36.5677 3.46154 36.5783 7.93007L36.6103 14.1084H40.234L40.266 11.7168L40.2873 9.33566H43.8045L43.8258 11.7168L43.8578 14.1084L45.4565 14.1294C46.3411 14.1503 47.1617 14.1399 47.3003 14.1084L47.5348 14.0559V7.82518C47.5348 2.24476 47.5135 1.59441 47.3643 1.53147C47.1511 1.44755 44.1882 1.44755 43.975 1.53147C43.8258 1.58392 43.8045 1.8986 43.8045 3.98602V6.38811L42.6641 6.41958C42.0246 6.44056 41.2359 6.44056 40.9055 6.41958L40.2873 6.38811V4.05944C40.2873 2.38112 40.2553 1.68881 40.1594 1.59441C39.9676 1.4056 36.8341 1.41609 36.6743 1.61539ZM61.4115 1.55245C61.3049 1.62588 61.2836 2.95804 61.3049 7.87762L61.3369 14.1084H63.1488C64.5237 14.1084 64.9606 14.0769 64.9713 13.972C64.9819 13.9091 64.9926 12.6818 65.0033 11.2552C65.0139 8.96853 65.0352 8.68532 65.1631 8.87413C65.323 9.1049 65.4722 9.35664 66.3995 11.0664C66.7085 11.6434 67.0496 12.2308 67.1455 12.3776C67.2414 12.5245 67.4546 12.9126 67.6251 13.2483C67.7957 13.5944 68.0301 13.9301 68.1474 14.014C68.3179 14.1294 68.7975 14.1608 70.247 14.1608C71.2915 14.1608 72.2081 14.1294 72.304 14.0979C72.4532 14.035 72.4745 13.3951 72.4745 7.87762C72.4745 3.23077 72.4426 1.68881 72.3466 1.59441C72.1974 1.44755 69.1066 1.41609 68.8828 1.55245C68.7762 1.61539 68.7442 2.41259 68.7229 4.72028C68.6909 7.52098 68.6803 7.76224 68.5311 7.48951C68.4458 7.32168 67.9022 6.31469 67.3161 5.24476C66.7299 4.17483 66.0584 2.93706 65.8239 2.49651C65.4935 1.86713 65.323 1.65734 65.0779 1.57343C64.7155 1.44755 61.614 1.43707 61.4115 1.55245ZM86.3513 1.55245C86.2447 1.62588 86.2234 2.95804 86.2447 7.87762L86.2767 14.1084H89.9004L89.9324 11.3811L89.9537 8.65385L90.2734 9.12587C90.4546 9.38811 90.5932 9.62937 90.5932 9.66084C90.5932 9.69231 90.9555 10.3846 91.4032 11.1818C91.8508 11.979 92.3624 12.9021 92.5329 13.2168C93.0552 14.1818 93.0019 14.1608 95.1761 14.1608C96.2206 14.1608 97.1479 14.1294 97.2438 14.0979C97.393 14.035 97.4143 13.3846 97.4143 7.81469C97.4143 2.24476 97.393 1.59441 97.2438 1.53147C97.0306 1.44755 94.0677 1.44755 93.8545 1.53147C93.7053 1.58392 93.684 1.97203 93.684 4.70979V7.81469L93.3536 7.23776C93.1724 6.92308 92.7141 6.07343 92.3304 5.34965C91.9467 4.63636 91.4991 3.82867 91.3499 3.56644C91.19 3.3042 90.9022 2.77972 90.6997 2.39161C90.4226 1.85665 90.2628 1.65734 90.0283 1.57343C89.6553 1.44755 86.5538 1.43707 86.3513 1.55245ZM99.2048 1.58392C99.0237 1.67832 99.013 2.08741 99.013 7.79371C99.013 12.4091 99.045 13.9406 99.1409 14.035C99.3221 14.2133 102.541 14.2133 102.722 14.035C102.818 13.9406 102.85 12.4091 102.85 7.79371C102.85 1.86714 102.839 1.67832 102.647 1.57343C102.381 1.43707 99.45 1.43707 99.2048 1.58392ZM63.6284 16.6049C63.5964 16.6259 62.9996 16.6783 62.2961 16.7098C60.9106 16.7832 59.8128 16.951 59.6103 17.1189C59.4185 17.2762 59.4078 29.0559 59.5997 29.2448C59.7915 29.4336 63.0315 29.4231 63.1807 29.2343C63.2553 29.1503 63.3193 28.5105 63.33 27.6818C63.3619 26.4965 63.3832 26.2867 63.5218 26.3077C63.6604 26.3392 64.449 26.4021 65.0459 26.4231C65.1844 26.4336 65.3763 26.7168 65.696 27.3986C65.9518 27.9336 66.197 28.479 66.2289 28.6049C66.2716 28.7308 66.3995 28.951 66.5167 29.0979L66.7299 29.3706H68.5204C69.501 29.3706 70.3323 29.3392 70.3749 29.3077C70.4282 29.2448 70.3216 28.9615 69.7781 27.7972C69.6395 27.4825 69.3091 26.7587 69.064 26.1923L68.6057 25.1748L68.8295 24.9336C69.1919 24.5559 69.5969 23.6538 69.7674 22.8357C70.0019 21.7972 69.9166 20.1923 69.6075 19.3846C69.0853 18.042 67.5825 17.014 65.76 16.7413C65.0885 16.6469 63.6817 16.5524 63.6284 16.6049ZM65.7387 20.1084C66.0691 20.4755 66.0797 20.5175 66.0797 21.3986C66.0797 21.9021 66.0264 22.4475 65.9731 22.6259C65.8133 23.0559 65.2804 23.2867 64.4491 23.2867C63.2234 23.2867 63.3086 23.4231 63.3086 21.3881V19.6259L63.8735 19.5944C64.8221 19.542 65.3443 19.6888 65.7387 20.1084ZM36.5997 16.9196C36.5783 16.993 36.5677 17.7168 36.5783 18.514L36.6103 19.9825L38.1557 20.035L39.7011 20.0874L39.7544 24.7028L39.8077 29.3182H43.4314L43.4528 29.0559C43.4528 28.9091 43.4634 26.8217 43.4741 24.4091L43.4847 20.035H45.0195C46.3198 20.035 46.5649 20.014 46.6182 19.8671C46.7461 19.5524 46.6928 17.0455 46.5542 16.9091C46.3624 16.7203 36.6743 16.7308 36.5997 16.9196ZM47.3643 16.9301C47.3323 17.0035 47.3216 19.1643 47.3429 21.7238C47.3749 26.3496 47.3856 26.3811 47.6307 26.9895C48.0037 27.8601 48.5793 28.458 49.4852 28.8881C50.5084 29.3811 51.393 29.507 53.1089 29.4441C55.1659 29.3706 56.0825 29.035 57.0417 28.028C57.937 27.0944 57.9263 27.1573 57.9263 21.6608V16.8357H54.3026L54.2493 21.1469C54.1854 25.951 54.2387 25.6783 53.418 26.035C52.6613 26.3706 51.8406 26.2028 51.3823 25.6364C51.1692 25.3636 51.1585 25.2587 51.1585 21.2308C51.1585 18.965 51.1265 17.0455 51.0946 16.951C51.0413 16.8042 50.7748 16.7832 49.2294 16.7832C47.7906 16.7832 47.4069 16.8147 47.3643 16.9301ZM71.5686 16.9091C71.5366 16.9825 71.526 19.8042 71.5366 23.1818L71.5686 29.3182H75.1923V16.8357L73.4018 16.8042C72.0376 16.7832 71.6006 16.8042 71.5686 16.9091ZM76.6845 17.014C76.6525 17.1503 76.6418 17.8636 76.6525 18.6189L76.6845 19.9825L79.1678 20.014L81.6511 20.035L81.0329 20.7483C80.6919 21.1364 80.2549 21.6608 80.063 21.8916C79.8605 22.1329 79.6261 22.4266 79.5301 22.5315C77.3453 25.0489 76.5139 26.0664 76.4606 26.2762C76.3434 26.7482 76.4606 29.014 76.6205 29.1923C76.7484 29.3496 77.2174 29.3706 81.3846 29.3706H86.0102L86.1168 29.0979C86.1807 28.951 86.2234 28.3007 86.2234 27.6399C86.2234 25.9196 86.3832 26.0245 83.5802 25.993L81.2994 25.9615L82.7808 24.2203C83.5909 23.2657 84.4009 22.3007 84.5927 22.0699C85.2642 21.2517 85.5413 20.9371 85.925 20.5175L86.3193 20.0874L86.33 18.5559C86.33 17.507 86.2873 16.993 86.2021 16.9091C86.1061 16.8147 84.8911 16.7832 81.406 16.7832H76.7377L76.6845 17.014ZM87.6622 16.9091C87.6302 16.9825 87.6196 19.8042 87.6302 23.1818L87.6622 29.3182H91.2859L91.3392 26.1294L91.3925 22.951L92.437 24.4301L93.4815 25.9091H95.0269L96.0927 24.4196L97.1478 22.9196L97.2011 26.1189L97.2544 29.3182H100.878L100.899 23.1399C100.921 18.2832 100.899 16.9301 100.793 16.8671C100.729 16.8252 99.8976 16.7832 98.9597 16.7832H97.2544L96.0288 18.5245C95.3573 19.4685 94.6752 20.4126 94.5153 20.6224L94.2275 20.9895L93.7693 20.3392C93.5135 19.9825 93.2364 19.5944 93.1511 19.458C93.0658 19.3322 92.906 19.1119 92.7994 18.9755C92.7035 18.8392 92.3198 18.2937 91.9467 17.7797L91.2753 16.8357L89.4954 16.8042C88.1205 16.7832 87.6942 16.8042 87.6622 16.9091Z" fill="#FF6633"/>
<path d="M21.1562 21.5035C21.2628 21.6189 21.3693 21.7133 21.4013 21.7133C21.4333 21.7133 21.3693 21.6189 21.2628 21.5035C21.1562 21.3881 21.0496 21.2937 21.0176 21.2937C20.9857 21.2937 21.0496 21.3881 21.1562 21.5035ZM19.3763 29.9685C19.4509 30 19.5468 29.9895 19.5788 29.958C19.6214 29.9266 19.5575 29.8951 19.4402 29.9056C19.323 29.9056 19.291 29.9371 19.3763 29.9685Z" fill="#FF6666"/>
<path d="M97.1372 26.1189C97.1372 27.8182 97.1585 28.521 97.1692 27.6608C97.1905 26.8112 97.1905 25.4266 97.1692 24.5664C97.1585 23.7168 97.1372 24.4196 97.1372 26.1189Z" fill="#FD7955" fill-opacity="0.47"/>
<path d="M87.5556 23.0769C87.5556 26.4545 87.5663 27.8287 87.5769 26.1399C87.5982 24.4615 87.5982 21.6923 87.5769 20.0035C87.5663 18.3252 87.5556 19.6993 87.5556 23.0769Z" fill="#7F0000" fill-opacity="0.01"/>
<path d="M36.5037 7.81468C36.5037 11.1608 36.5144 12.5454 36.525 10.8881C36.5464 9.23076 36.5464 6.493 36.525 4.80419C36.5144 3.11538 36.5037 4.46852 36.5037 7.81468Z" fill="#AA5500" fill-opacity="0.01"/>
<path d="M43.7405 4.09091C43.7405 5.39161 43.7618 5.91609 43.7725 5.26574C43.7938 4.62588 43.7938 3.55595 43.7725 2.9056C43.7618 2.26574 43.7405 2.79021 43.7405 4.09091ZM43.7405 11.5909C43.7405 12.8601 43.7618 13.3636 43.7725 12.7133C43.7938 12.0629 43.7938 11.0245 43.7725 10.4056C43.7618 9.78672 43.7405 10.3217 43.7405 11.5909ZM4.15662 25.4266C4.15662 25.4476 4.24188 25.5315 4.34846 25.6049C4.50833 25.7413 4.51899 25.7308 4.38043 25.5629C4.24188 25.3951 4.15662 25.3427 4.15662 25.4266Z" fill="#DB6D49" fill-opacity="0.03"/>
<path d="M54.196 20.9266C54.196 23.1189 54.2067 24.0315 54.2174 22.951C54.2387 21.8706 54.2387 20.0769 54.2174 18.965C54.2067 17.8531 54.196 18.7343 54.196 20.9266Z" fill="#D4552A" fill-opacity="0.02"/>
<path d="M104.289 9.65035C104.289 11.9895 104.299 12.9441 104.31 11.7797C104.331 10.6049 104.331 8.6958 104.31 7.53147C104.299 6.35664 104.289 7.31119 104.289 9.65035Z" fill="#FC7A52" fill-opacity="0.29"/>
<path d="M71.462 23.0769C71.462 26.4545 71.4726 27.8287 71.4833 26.1399C71.5046 24.4615 71.5046 21.6923 71.4833 20.0035C71.4726 18.3252 71.462 19.6993 71.462 23.0769Z" fill="#FC7951" fill-opacity="0.3"/>
<path d="M52.576 29.5489C52.6719 29.5699 52.8211 29.5699 52.8957 29.5489C52.9597 29.5175 52.8851 29.4965 52.7039 29.4965C52.5333 29.4965 52.4694 29.5175 52.576 29.5489Z" fill="#F97A51" fill-opacity="0.17"/>
<path d="M37.5482 20.1084C37.9426 20.1294 38.582 20.1294 38.987 20.1084C39.3814 20.0874 39.051 20.0769 38.2623 20.0769C37.4736 20.0769 37.1432 20.0874 37.5482 20.1084ZM44.1455 20.1084C44.5399 20.1294 45.2113 20.1294 45.6376 20.1084C46.064 20.0979 45.7442 20.0769 44.9236 20.0769C44.1029 20.0769 43.7512 20.0874 44.1455 20.1084ZM78.1553 20.1084C78.7841 20.1294 79.8072 20.1294 80.4467 20.1084C81.0756 20.0979 80.5533 20.0769 79.2957 20.0769C78.038 20.0769 77.5158 20.0979 78.1553 20.1084Z" fill="#FB7851" fill-opacity="0.28"/>
<path d="M68.6803 4.1958C68.6803 5.54895 68.7016 6.1049 68.7123 5.42308C68.7336 4.75175 68.7336 3.63986 68.7123 2.95804C68.7016 2.28671 68.6803 2.84266 68.6803 4.1958ZM93.62 4.72028C93.62 6.36713 93.6414 7.03846 93.652 6.20979C93.6733 5.39161 93.6733 4.04895 93.652 3.22028C93.6414 2.4021 93.62 3.07343 93.62 4.72028ZM68.6696 7.18532C68.6696 7.46853 68.6909 7.58392 68.7123 7.41608C68.7336 7.25874 68.7336 7.02797 68.7123 6.89161C68.6909 6.76573 68.6696 6.89161 68.6696 7.18532Z" fill="#CC6633" fill-opacity="0.02"/>
<path d="M86.17 7.86715C86.17 11.2448 86.1807 12.6189 86.1914 10.9301C86.2127 9.25176 86.2127 6.48253 86.1914 4.79372C86.1807 3.1154 86.17 4.48952 86.17 7.86715Z" fill="#FC7A53" fill-opacity="0.34"/>
<path d="M58.0329 21.2413C58.0329 23.6014 58.0436 24.5874 58.0542 23.4231C58.0755 22.2587 58.0755 20.3287 58.0542 19.1224C58.0436 17.9266 58.0329 18.8706 58.0329 21.2413Z" fill="#FA7A52" fill-opacity="0.2"/>
<path d="M40.33 4.09091C40.33 5.39161 40.3513 5.91609 40.3619 5.26574C40.3832 4.62588 40.3832 3.55595 40.3619 2.9056C40.3513 2.26574 40.33 2.79021 40.33 4.09091ZM40.33 11.6434C40.33 12.9441 40.3513 13.4685 40.3619 12.8182C40.3832 12.1783 40.3832 11.1084 40.3619 10.458C40.3513 9.81818 40.33 10.3427 40.33 11.6434Z" fill="#FB7952" fill-opacity="0.23"/>
<path d="M47.5881 7.86715C47.5881 11.2448 47.5987 12.6189 47.6094 10.9301C47.6307 9.25176 47.6307 6.48253 47.6094 4.79372C47.5987 3.1154 47.5881 4.48952 47.5881 7.86715Z" fill="#FA794F" fill-opacity="0.22"/>
<path d="M72.5278 7.86715C72.5278 11.2448 72.5385 12.6189 72.5491 10.9301C72.5705 9.25176 72.5705 6.48253 72.5491 4.79372C72.5385 3.1154 72.5278 4.48952 72.5278 7.86715Z" fill="#FB7951" fill-opacity="0.22"/>
<path d="M84.678 9.65035C84.678 11.9895 84.6886 12.9441 84.6993 11.7797C84.7206 10.6049 84.7206 8.6958 84.6993 7.53147C84.6886 6.35664 84.678 7.31119 84.678 9.65035Z" fill="#FC7853" fill-opacity="0.33"/>
<path d="M39.7011 24.6504C39.7011 27.1574 39.7118 28.1853 39.7224 26.9371C39.7437 25.6783 39.7437 23.6224 39.7224 22.3741C39.7118 21.1154 39.7011 22.1434 39.7011 24.6504Z" fill="#FD7C51" fill-opacity="0.42"/>
<path d="M53.6418 11.2972C54.1001 11.3182 54.8142 11.3182 55.2405 11.2972C55.6668 11.2867 55.2938 11.2657 54.4092 11.2657C53.5352 11.2657 53.1835 11.2867 53.6418 11.2972ZM78.5816 11.2972C79.0399 11.3182 79.754 11.3182 80.1803 11.2972C80.6066 11.2867 80.2336 11.2657 79.3489 11.2657C78.475 11.2657 78.1233 11.2867 78.5816 11.2972ZM108.85 11.2972C109.309 11.3182 110.023 11.3182 110.449 11.2972C110.875 11.2867 110.502 11.2657 109.618 11.2657C108.744 11.2657 108.392 11.2867 108.85 11.2972ZM39.2535 16.7518C40.5964 16.7727 42.7493 16.7727 44.0496 16.7518C45.3499 16.7413 44.2628 16.7308 41.6196 16.7308C38.987 16.7308 37.9212 16.7413 39.2535 16.7518ZM48.4727 16.7518C48.8883 16.7727 49.5918 16.7727 50.0181 16.7518C50.4337 16.7413 50.0927 16.7203 49.2401 16.7203C48.3874 16.7203 48.0464 16.7413 48.4727 16.7518ZM55.3471 16.7518C55.8054 16.7727 56.5195 16.7727 56.9458 16.7518C57.3721 16.7413 56.9991 16.7203 56.1145 16.7203C55.2405 16.7203 54.8888 16.7413 55.3471 16.7518ZM72.6131 16.7518C73.0714 16.7727 73.7855 16.7727 74.2118 16.7518C74.6381 16.7413 74.2651 16.7203 73.3805 16.7203C72.5065 16.7203 72.1548 16.7413 72.6131 16.7518ZM79.3276 16.7518C80.5533 16.7727 82.5144 16.7727 83.6974 16.7518C84.8805 16.7413 83.8893 16.7308 81.4806 16.7308C79.0825 16.7308 78.1126 16.7413 79.3276 16.7518ZM88.7067 16.7518C89.165 16.7727 89.8791 16.7727 90.3054 16.7518C90.7317 16.7413 90.3587 16.7203 89.4741 16.7203C88.6001 16.7203 88.2484 16.7413 88.7067 16.7518ZM98.2456 16.7518C98.6613 16.7727 99.3647 16.7727 99.791 16.7518C100.207 16.7413 99.8656 16.7203 99.013 16.7203C98.1604 16.7203 97.8193 16.7413 98.2456 16.7518Z" fill="#FB7850" fill-opacity="0.25"/>
<path d="M18.7474 14.7378C16.8183 15.042 15.0384 15.6084 13.8128 16.3007C13.4611 16.4895 13.2372 16.6783 13.3012 16.7203C13.3651 16.7622 14.0259 16.7413 14.772 16.6783C21.0922 16.1748 25.0037 17.507 27.3804 20.958C28.4143 22.458 29.0004 24.2098 29.5653 27.4091C29.7678 28.5524 29.9597 29.528 30.0023 29.5594C30.0876 29.6434 34.5746 29.6119 34.937 29.528C35.2141 29.465 35.2354 29.5909 34.5852 27.3147C33.2317 22.6573 31.3452 19.2692 28.9258 17.1818C27.6042 16.0385 26.208 15.3357 24.3962 14.8846C23.2238 14.6014 20.1117 14.5175 18.7474 14.7378ZM9.62417 15.7343C9.50693 15.9965 9.28312 16.5315 9.11259 16.9196C8.86745 17.5175 8.71824 17.7063 8.23863 18.0629C7.85494 18.3566 7.69507 18.5245 7.76968 18.5979C7.83363 18.6608 8.22797 18.7343 8.65429 18.7657C9.32575 18.8182 9.54957 18.8916 10.189 19.2692C10.9138 19.6888 11.5106 19.9196 11.5106 19.7727C11.5106 19.7413 11.3081 19.4371 11.0523 19.1119C10.7966 18.7867 10.5514 18.4615 10.5194 18.3881C10.4768 18.3252 10.626 18.1364 10.8925 17.9371C11.3188 17.6329 11.3934 17.6119 11.9583 17.6748L12.5551 17.7378L12.4485 17.2867C12.3846 17.035 12.2993 16.8042 12.2567 16.7517C12.2247 16.7098 11.8624 16.7937 11.4574 16.9406C11.031 17.0979 10.5727 17.2028 10.3489 17.1818L9.96523 17.1503L9.9972 16.521C10.0079 16.1748 9.98654 15.7448 9.93325 15.5769L9.82667 15.2622L9.62417 15.7343Z" fill="#FF9966"/>
</g>
<defs>
<clipPath id="clip0_102_63">
<rect width="115" height="30" fill="white"/>
</clipPath>
</defs>
</svg>
